HIERARCHY
ROOT Hips
{
	OFFSET 0.00000 0.00000 0.00000
	CHANNELS 6 Xposition Yposition Zposition Zrotation Yrotation Xrotation 
	JOINT LHipJoint
	{
		OFFSET 0 0 0
		CHANNELS 3 Zrotation Yrotation Xrotation
		JOINT LeftHip
		{
			OFFSET 1.51378 -1.89840 0.47569
			CHANNELS 3 Zrotation Yrotation Xrotation
			JOINT LeftKnee
			{
				OFFSET 2.53380 -6.96157 0.00000
				CHANNELS 3 Zrotation Yrotation Xrotation
				JOINT LeftAnkle
				{
					OFFSET 2.74874 -7.55212 0.00000
					CHANNELS 3 Zrotation Yrotation Xrotation
					JOINT LeftToe
					{
						OFFSET 0.18263 -0.50178 1.99677
						CHANNELS 3 Zrotation Yrotation Xrotation
						End Site
						{
							OFFSET 0.00000 -0.00000 1.03711
						}
					}
				}
			}
		}
	}
	JOINT RHipJoint
	{
		OFFSET 0 0 0
		CHANNELS 3 Zrotation Yrotation Xrotation
		JOINT RightHip
		{
			OFFSET -1.43037 -1.89840 0.47569
			CHANNELS 3 Zrotation Yrotation Xrotation
			JOINT RightKnee
			{
				OFFSET -2.69849 -7.41406 0.00000
				CHANNELS 3 Zrotation Yrotation Xrotation
				JOINT RightAnkle
				{
					OFFSET -2.69369 -7.40087 0.00000
					CHANNELS 3 Zrotation Yrotation Xrotation
					JOINT RightToe
					{
						OFFSET -0.28932 -0.79491 2.04975
						CHANNELS 3 Zrotation Yrotation Xrotation
						End Site
						{
							OFFSET 0.00009 0.00010 1.09536
						}
					}
				}
			}
		}
	}
	JOINT lowerback
	{
		OFFSET 0 0 0
		CHANNELS 3 Zrotation Yrotation Xrotation
		JOINT Chest
		{
			OFFSET 0.01912 1.94784 -0.02419
			CHANNELS 3 Zrotation Yrotation Xrotation
			JOINT Chest2
			{
				OFFSET 0.07565 1.94258 0.01909
				CHANNELS 3 Zrotation Yrotation Xrotation
				JOINT lowerneck
				{
					OFFSET 0 0 0
					CHANNELS 3 Zrotation Yrotation Xrotation
					JOINT Neck
					{
						OFFSET -0.07010 1.86195 0.18976
						CHANNELS 3 Zrotation Yrotation Xrotation
						JOINT Head
						{
							OFFSET 0.02284 1.86595 -0.31497
							CHANNELS 3 Zrotation Yrotation Xrotation
							End Site
							{
								OFFSET 0.01200 1.90122 -0.12838
							}
						}
					}
				}
				JOINT LeftCollar
				{
					OFFSET 0 0 0
					CHANNELS 3 Zrotation Yrotation Xrotation
					JOINT LeftShoulder
					{
						OFFSET 3.39189 0.96331 -0.10437
CHANNELS 3 Zrotation Xrotation Yrotation
						JOINT LeftElbow
						{
OFFSET 0 -5.148450 0.000000
CHANNELS 3 Zrotation Xrotation Yrotation
							JOINT LeftWrist
							{
OFFSET 0 -3.436740 -0.000000
CHANNELS 3 Zrotation Xrotation Yrotation
								JOINT lhand
								{
									OFFSET 0 0 0
CHANNELS 3 Zrotation Xrotation Yrotation
									JOINT LFingers
									{
OFFSET 0 -0.588710 0.000000
CHANNELS 3 Zrotation Xrotation Yrotation
										End Site
										{
OFFSET 0 -0.474630 0.000000
										}
									}
								}
								JOINT LThumb
								{
OFFSET 0 0.000000 0.000000
CHANNELS 3 Zrotation Xrotation Yrotation
									End Site
									{
OFFSET 0 -0.481880 0.481880
									}
								}
							}
						}
					}
				}
				JOINT RightCollar
				{
					OFFSET 0 0 0
					CHANNELS 3 Zrotation Yrotation Xrotation
					JOINT RightShoulder
					{
						OFFSET -3.34934 1.18831 -0.19928
CHANNELS 3 Zrotation Xrotation Yrotation
						JOINT RightElbow
						{
OFFSET 0 -5.421850 0.000000
CHANNELS 3 Zrotation Xrotation Yrotation
							JOINT RightWrist
							{
OFFSET 0 -3.513170 -0.000000
CHANNELS 3 Zrotation Xrotation Yrotation
								JOINT rhand
								{
									OFFSET 0 0 0
CHANNELS 3 Zrotation Xrotation Yrotation
									JOINT RFingers
									{
OFFSET 0 -0.663190 0.000000
CHANNELS 3 Zrotation Xrotation Yrotation
										End Site
										{
OFFSET 0 -0.534680 0.000000
										}
									}
								}
								JOINT RThumb
								{
OFFSET 0 0.000000 0.000000
CHANNELS 3 Zrotation Xrotation Yrotation
									End Site
									{
OFFSET 0 -0.542840 0.542840
									}
								}
							}
						}
					}
				}
			}
		}
	}
}
MOTION
Frames: 12
Frame Time: 0.008333333333333333
-14.300700 17.716000 -14.981900 -1.324700 22.754000 8.369400 0.000000 0.000000 0.000000 -19.588500 -7.354800 -17.957800 2.596400 10.011000 29.012500 0.917900 4.910000 -20.516100 0.064000 -1.632700 -4.491700 0.000000 0.000000 0.000000 26.053500 9.734500 -19.671700 -3.815800 -11.911200 35.418500 -2.089500 -1.529100 -27.918900 -0.142800 -2.435300 6.710200 -0.833400 -0.889200 -0.464600 3.840900 -1.196000 0.427800 4.408600 -0.611400 0.799600 -2.190300 0.739100 -13.611900 -6.554200 3.872100 29.327600 -1.514700 0.734800 12.016300 -0.000000 -0.000000 0.000000 -2.681300 3.096000 -16.738900 19.156500 -29.612700 5.108000 18.546000 3.505500 -24.089600 0.000000 0.000000 0.000000 -7.125000 0.000000 0.000000 -11.514100 54.857700 2.815500 -0.000000 -0.000000 0.000000 -3.471600 -0.706100 19.864200 -15.305600 -24.570100 -3.352000 -26.868000 -4.370000 -12.710300 0.000000 0.000000 0.000000 7.125000 0.000000 -0.000000 0.288300 15.790400 0.198900
-14.330528 17.640611 -14.892515 -2.114699 22.291115 8.052793 0.000000 0.000000 0.000000 -18.328877 -6.865362 -20.723246 3.553819 11.540859 34.127612 1.090671 3.965763 -21.530201 0.118986 -2.223609 -6.124019 0.000000 0.000000 0.000000 27.084289 9.397145 -19.799770 -3.967591 -12.117211 36.147801 -2.226756 -0.324157 -28.378567 -0.121223 -2.244547 6.182057 -0.031468 -0.440541 0.049479 3.706217 -0.604242 0.876497 3.824085 -0.314224 0.912084 -2.056766 0.726008 -13.724765 -6.281482 3.664118 28.512966 -1.449956 0.709551 11.702712 0.000000 0.000000 0.000000 -2.093728 2.580013 -16.979531 19.316920 -29.810587 5.187461 18.490946 3.666581 -23.070945 0.000000 0.000000 0.000000 -7.125000 0.000000 0.000000 -11.125133 53.822220 2.436761 0.000000 0.000000 0.000000 -2.936308 -0.723318 19.512933 -15.456790 -24.778464 -3.415207 -26.032701 -4.691890 -12.936596 0.000000 0.000000 0.000000 7.125000 0.000000 0.000000 0.879750 15.640933 0.609992
-14.336705 17.586127 -14.733216 -3.071338 22.601819 7.412171 0.000000 0.000000 0.000000 -16.177430 -7.440843 -27.182545 6.237348 14.653006 45.924123 0.816803 1.956568 -17.884321 0.084121 -1.868577 -5.142632 0.000000 0.000000 0.000000 28.456423 8.674286 -19.057157 -3.952901 -12.097425 36.077592 -2.361147 0.361654 -29.007538 -0.102317 -2.061622 5.676078 0.451395 -0.081096 0.576530 3.918927 -0.126589 1.336560 3.776737 -0.075234 1.056219 -2.447266 0.640142 -14.009626 -5.899605 3.549137 28.489470 -1.255239 0.660640 11.734454 0.000000 0.000000 0.000000 -2.095636 2.529271 -17.382503 19.856329 -30.468750 5.458288 18.511465 3.203758 -23.805395 0.000000 0.000000 0.000000 -7.125000 0.000000 0.000000 -11.422012 54.565619 2.710704 0.000000 0.000000 0.000000 -2.955219 -1.090069 19.418895 -15.421797 -24.730455 -3.400489 -25.866341 -6.531871 -11.879934 0.000000 0.000000 0.000000 7.125000 0.000000 0.000000 0.922018 16.822004 0.615782
-14.254770 17.610287 -14.438373 -3.121040 22.459178 7.018939 0.000000 0.000000 0.000000 -14.584957 -9.395851 -33.195197 8.469739 16.454142 54.237564 0.827891 -1.154099 -16.842145 0.074823 -1.763525 -4.852648 0.000000 0.000000 0.000000 28.911307 7.746820 -16.860206 -3.643947 -11.670891 34.577412 -2.485369 0.269618 -29.798893 -0.027982 -1.078925 2.965843 0.539284 0.583211 1.027862 3.508960 0.763822 1.650103 3.301693 0.371516 1.075163 -2.458072 0.449758 -13.951488 -5.539338 3.172458 28.428778 -1.170558 0.541611 11.678791 0.000000 0.000000 0.000000 -1.741484 3.427747 -17.749066 20.117829 -30.784094 5.591525 19.130832 3.466033 -25.467273 0.000000 0.000000 0.000000 -7.125000 0.000000 0.000000 -11.559205 56.358168 3.249855 0.000000 0.000000 0.000000 -2.181486 -1.199152 19.059075 -15.918209 -25.409668 -3.610832 -25.699479 -8.672308 -10.099327 0.000000 0.000000 0.000000 7.125000 0.000000 0.000000 0.932045 18.799184 0.582048
-14.075463 17.662952 -13.989534 -2.913046 21.771185 7.663812 0.000000 0.000000 0.000000 -13.916805 -10.471883 -37.363326 6.839364 15.193953 48.261956 0.798004 -1.603890 -16.411041 0.164469 -2.612861 -7.202660 0.000000 0.000000 0.000000 28.839771 7.217188 -14.442046 -3.147159 -10.929482 32.042457 -2.485117 0.512519 -29.723517 -0.044434 -1.358635 3.736163 0.472763 1.281867 1.022364 3.021291 1.700424 1.512196 2.830367 0.842790 0.899082 -2.545064 0.458583 -14.031075 -5.609745 3.226729 28.198239 -1.170095 0.555681 11.608053 0.000000 0.000000 0.000000 -1.981775 4.800700 -15.586116 19.230078 -29.703536 5.144384 20.364142 5.106880 -25.807185 0.000000 0.000000 0.000000 -7.125000 0.000000 0.000000 -10.428186 56.960041 3.079421 0.000000 0.000000 0.000000 -1.587255 -1.700011 20.624221 -16.631581 -26.369508 -3.922257 -26.086125 -10.137202 -9.696843 0.000000 0.000000 0.000000 7.125000 0.000000 0.000000 0.635453 19.208092 0.391598
-13.811835 17.681893 -13.415333 -3.024459 21.507638 7.991001 0.000000 0.000000 0.000000 -13.222895 -11.619328 -37.249050 3.288084 11.143264 32.769459 0.563676 0.628617 -14.424458 0.209508 -2.944289 -8.123888 0.000000 0.000000 0.000000 29.101488 6.955201 -11.077727 -2.590222 -9.999935 28.976625 -2.518080 -0.310126 -30.179859 -0.058047 -1.548999 4.260974 0.705437 1.842411 1.343258 2.562013 2.454760 1.588286 2.214195 1.224100 0.792066 -2.726982 0.247334 -14.409005 -5.474156 2.927010 27.828603 -1.125197 0.421806 11.530439 0.000000 0.000000 0.000000 -1.920409 5.675421 -13.793559 17.672399 -27.735433 4.395844 20.471293 6.165269 -25.386031 0.000000 0.000000 0.000000 -7.125000 0.000000 0.000000 -10.112912 56.556519 2.885701 0.000000 0.000000 0.000000 -1.242361 -2.671120 23.605776 -18.210038 -28.424993 -4.648914 -26.274075 -11.254637 -9.630984 0.000000 0.000000 0.000000 7.125000 0.000000 0.000000 0.498498 19.263638 0.306024
-13.423623 17.681861 -12.694785 -2.818482 21.188458 8.285876 0.000000 0.000000 0.000000 -10.819282 -16.238760 -32.676318 0.828570 5.806835 16.225128 0.246223 -0.157252 -9.318479 0.568555 -4.827056 -13.416352 0.000000 0.000000 0.000000 28.898541 5.710197 -6.833868 -2.077083 -9.024884 25.873071 -2.567231 -0.689306 -30.599141 -0.001508 -0.243014 0.667868 0.217091 2.328605 1.363668 2.169536 3.100334 1.587031 2.077786 1.543694 0.753715 -2.391775 0.118250 -14.071788 -5.509430 2.655785 27.855904 -1.233017 0.338988 11.468167 0.000000 0.000000 0.000000 -2.191752 6.619966 -11.334370 16.168626 -25.748804 3.718931 20.338688 7.313255 -24.270182 0.000000 0.000000 0.000000 -7.125000 0.000000 0.000000 -9.746615 55.396064 2.504649 0.000000 0.000000 0.000000 -1.289804 -4.083694 25.670103 -18.970232 -29.381708 -5.016223 -26.471379 -12.077270 -10.710485 0.000000 0.000000 0.000000 7.125000 0.000000 0.000000 0.423568 18.049238 0.271460
-12.890030 17.597576 -11.846159 -1.855168 20.498310 8.617464 0.000000 0.000000 0.000000 -12.392438 -16.262848 -31.279872 0.909768 6.077052 17.008468 0.134254 -3.904379 -6.651846 0.162441 -2.596638 -7.157764 0.000000 0.000000 0.000000 27.441116 5.855919 -3.397495 -2.235287 -9.339801 26.864077 -2.510952 -1.086709 -30.399351 -0.101759 2.056640 -5.662186 -0.824787 2.669725 1.111380 1.496270 3.548219 1.747427 1.982950 1.756812 1.023371 -2.357273 -0.072412 -14.399902 -5.211661 2.331846 28.257647 -1.180717 0.218483 11.677427 0.000000 0.000000 0.000000 -2.478626 7.848988 -10.315654 15.912326 -25.401524 3.608236 18.556861 6.455021 -25.034098 0.000000 0.000000 0.000000 -7.125000 0.000000 0.000000 -11.944930 55.806578 3.200120 0.000000 0.000000 0.000000 -0.989877 -5.503971 26.427516 -19.187850 -29.651362 -5.123437 -27.308260 -12.939015 -11.300526 0.000000 0.000000 0.000000 7.125000 0.000000 0.000000 -0.122479 17.305241 -0.080349
-12.210253 17.731677 -10.842309 -0.801608 21.234928 8.137345 0.000000 0.000000 0.000000 -15.960584 -15.499624 -28.393271 1.230745 7.035461 19.820499 0.039649 -5.120737 -4.758348 0.307080 -3.562587 -9.849155 0.000000 0.000000 0.000000 25.745788 5.166174 -1.501674 -3.197231 -11.006140 32.302305 -1.652280 -1.580212 -24.904009 -0.311971 3.590202 -9.926644 -1.696104 2.666552 1.227078 1.012596 3.542525 1.801720 1.969181 1.746420 0.992973 -2.616618 -0.559552 -14.137804 -4.556405 1.544332 28.890722 -1.011405 -0.087009 11.844925 0.000000 0.000000 0.000000 -3.015414 7.608486 -8.327547 14.662301 -23.673559 3.089058 18.289265 7.241389 -24.402115 0.000000 0.000000 0.000000 -7.125000 0.000000 0.000000 -11.920695 55.120756 2.993790 0.000000 0.000000 0.000000 -0.846404 -4.994246 25.005509 -18.832753 -29.210341 -4.948998 -28.203536 -12.301379 -12.031315 0.000000 0.000000 0.000000 7.125000 0.000000 0.000000 -0.687283 16.384873 -0.465644
-11.493992 17.888943 -9.759175 -0.294115 21.835540 7.285237 0.000000 0.000000 0.000000 -19.285386 -11.674333 -23.572717 1.239852 7.060836 19.895613 0.148539 -7.701147 -8.163515 0.783471 -5.650754 -15.774466 0.000000 0.000000 0.000000 23.745582 3.101535 -9.205504 -7.268412 -15.553109 49.881182 -0.044374 -4.213813 -7.504042 -0.095598 -1.978712 5.447092 -2.678707 2.408986 1.191242 0.963335 3.194738 1.594918 2.465494 1.567505 0.767573 -2.882352 -0.631393 -14.338114 -3.789690 1.365151 30.080313 -0.719473 -0.122809 12.348367 0.000000 0.000000 0.000000 -2.998221 8.245051 -10.598834 15.087154 -24.267402 3.261740 17.301614 6.183705 -24.339064 0.000000 0.000000 0.000000 -7.125000 0.000000 0.000000 -12.899345 54.864502 3.164395 0.000000 0.000000 0.000000 -1.533679 -3.051323 25.792122 -18.537081 -28.839485 -4.805567 -28.959359 -13.663745 -13.713424 0.000000 0.000000 0.000000 7.125000 0.000000 0.000000 -1.053551 14.398114 -0.758649
-10.818898 17.957162 -8.758950 0.283821 22.456535 6.556901 0.000000 0.000000 0.000000 -21.800189 -9.574106 -18.880760 1.330704 7.304718 20.621435 0.236508 -10.069986 -10.461730 0.038523 -1.266179 -3.481478 0.000000 0.000000 0.000000 21.133706 4.057641 -21.304860 -13.176737 -18.843942 69.672404 0.133062 -10.065860 4.563390 -0.718155 -5.398503 15.052739 -2.930363 1.745276 1.451026 0.854926 2.301671 1.581100 2.495946 1.121053 0.658467 -2.703007 -0.275347 -14.124843 -4.007418 1.889062 30.155792 -0.757463 0.101338 12.343156 0.000000 0.000000 0.000000 -1.993974 6.786246 -14.017185 16.096016 -25.650656 3.687451 18.866343 5.890040 -25.147568 0.000000 0.000000 0.000000 -7.125000 0.000000 0.000000 -11.681044 55.985405 3.173996 0.000000 0.000000 0.000000 -1.493244 -2.071382 24.129043 -18.909792 -29.306436 -4.986659 -28.088929 -10.647843 -13.104089 0.000000 0.000000 0.000000 7.125000 0.000000 0.000000 -0.517009 15.198898 -0.363361
-10.210379 17.863394 -7.751425 -0.049418 23.246491 6.067385 0.000000 0.000000 0.000000 -22.727161 -8.375456 -16.569922 1.863877 8.576155 24.478622 0.725767 -11.541585 -16.104397 0.117258 -2.206092 -6.075612 0.000000 0.000000 0.000000 19.835504 6.628123 -31.890739 -14.829382 -19.346445 74.722025 0.117061 -7.420094 -7.243768 -0.461771 -4.357670 12.085273 -2.695506 1.069428 0.791108 1.380049 1.417371 1.717854 2.931168 0.667549 1.218746 -2.616849 0.162400 -14.198492 -4.413968 2.685566 30.867898 -0.819360 0.396665 12.671035 0.000000 0.000000 0.000000 -1.194239 2.451707 -13.724837 16.162791 -25.740850 3.716368 20.639253 7.664506 -26.143408 0.000000 0.000000 0.000000 -7.125000 0.000000 0.000000 -10.300591 57.359272 3.140395 0.000000 0.000000 0.000000 -1.792697 -1.164146 21.862732 -18.805613 -29.176451 -4.935723 -26.889530 -8.500780 -11.769411 0.000000 0.000000 0.000000 7.125000 0.000000 0.000000 0.203260 16.830519 0.135552
